<mxfile host="65bd71144e">
    <diagram id="ioQl0Pn0OTGW491PWLrf" name="第 1 页">
        <mxGraphModel dx="1397" dy="919" grid="1" gridSize="10" guides="1" tooltips="1" connect="1" arrows="1" fold="1" page="1" pageScale="1" pageWidth="1169" pageHeight="827" math="0" shadow="0">
            <root>
                <mxCell id="0"/>
                <mxCell id="1" parent="0"/>
                <mxCell id="2" value="" style="rounded=0;whiteSpace=wrap;html=1;fillColor=#CCFF99;strokeColor=#82b366;" parent="1" vertex="1">
                    <mxGeometry x="55" y="44" width="520" height="360" as="geometry"/>
                </mxCell>
                <mxCell id="3" value="" style="rounded=0;whiteSpace=wrap;html=1;fillColor=#FF9999;strokeColor=#b85450;" parent="1" vertex="1">
                    <mxGeometry x="595" y="44" width="520" height="360" as="geometry"/>
                </mxCell>
                <mxCell id="4" value="" style="rounded=0;whiteSpace=wrap;html=1;fillColor=#99CCFF;strokeColor=#6c8ebf;" parent="1" vertex="1">
                    <mxGeometry x="55" y="424" width="520" height="360" as="geometry"/>
                </mxCell>
                <mxCell id="5" value="" style="rounded=0;whiteSpace=wrap;html=1;fillColor=#FFCC99;strokeColor=#d6b656;" parent="1" vertex="1">
                    <mxGeometry x="595" y="424" width="520" height="360" as="geometry"/>
                </mxCell>
                <mxCell id="6" value="&lt;font style=&quot;font-size: 32px;&quot;&gt;Strengths&lt;/font&gt;" style="text;strokeColor=none;align=center;fillColor=none;html=1;verticalAlign=bottom;whiteSpace=wrap;rounded=0;fontStyle=1;fontColor=#333333;" parent="1" vertex="1">
                    <mxGeometry x="55" y="44" width="520" height="120" as="geometry"/>
                </mxCell>
                <mxCell id="7" value="&lt;blockquote style=&quot;margin: 0px 0px 0px 40px; border: none; padding: 0px; font-size: 18px;&quot;&gt;&lt;div style=&quot;font-family: &amp;quot;DejaVu Sans Mono&amp;quot;, &amp;quot;Fira Mono&amp;quot;, &amp;quot;Noto Sans SC&amp;quot;, Consolas, &amp;quot;Courier New&amp;quot;, monospace; font-size: 18px; line-height: 24px;&quot;&gt;&lt;ul style=&quot;font-size: 18px;&quot;&gt;&lt;li style=&quot;font-size: 18px;&quot;&gt;Centralizing computing&lt;/li&gt;&lt;li style=&quot;font-size: 18px;&quot;&gt;Enhancing security measures&lt;/li&gt;&lt;li style=&quot;font-size: 18px;&quot;&gt;Reducing cost&lt;/li&gt;&lt;/ul&gt;&lt;/div&gt;&lt;/blockquote&gt;" style="text;align=left;html=1;verticalAlign=top;whiteSpace=wrap;rounded=0;fontStyle=0;labelBackgroundColor=none;labelBorderColor=none;glass=0;shadow=0;fontSize=18;fontColor=#000000;spacingLeft=-16;" parent="1" vertex="1">
                    <mxGeometry x="55" y="164" width="520" height="240" as="geometry"/>
                </mxCell>
                <mxCell id="8" value="&lt;font style=&quot;font-size: 32px;&quot;&gt;Weaknesses&lt;/font&gt;" style="text;strokeColor=none;align=center;fillColor=none;html=1;verticalAlign=bottom;whiteSpace=wrap;rounded=0;fontStyle=1;fontColor=#333333;" parent="1" vertex="1">
                    <mxGeometry x="595" y="44" width="520" height="120" as="geometry"/>
                </mxCell>
                <mxCell id="9" value="&lt;blockquote style=&quot;margin: 0px 0px 0px 40px; border: none; padding: 0px; font-size: 18px;&quot;&gt;&lt;div style=&quot;font-family: &amp;quot;DejaVu Sans Mono&amp;quot;, &amp;quot;Fira Mono&amp;quot;, &amp;quot;Noto Sans SC&amp;quot;, Consolas, &amp;quot;Courier New&amp;quot;, monospace; font-size: 20px; line-height: 24px;&quot;&gt;&lt;ul style=&quot;&quot;&gt;&lt;li style=&quot;&quot;&gt;Upfront costs in task 3.a is high&lt;/li&gt;&lt;li style=&quot;&quot;&gt;Employee resistance to change&lt;/li&gt;&lt;li style=&quot;&quot;&gt;Technical issues in task 3 and 5&lt;/li&gt;&lt;li style=&quot;&quot;&gt;Compatibility issues in task 3.b and 5.b&lt;/li&gt;&lt;/ul&gt;&lt;/div&gt;&lt;/blockquote&gt;" style="text;align=left;html=1;verticalAlign=top;whiteSpace=wrap;rounded=0;fontStyle=0;labelBackgroundColor=none;labelBorderColor=none;glass=0;shadow=0;fontSize=18;fontColor=#000000;spacingRight=0;spacing=0;spacingLeft=-16;" parent="1" vertex="1">
                    <mxGeometry x="595" y="164" width="520" height="240" as="geometry"/>
                </mxCell>
                <mxCell id="10" value="&lt;div style=&quot;text-align: center;&quot;&gt;&lt;span style=&quot;color: var(--tw-prose-bold); font-family: Söhne, ui-sans-serif, system-ui, -apple-system, &amp;quot;Segoe UI&amp;quot;, Roboto, Ubuntu, Cantarell, &amp;quot;Noto Sans&amp;quot;, sans-serif, &amp;quot;Helvetica Neue&amp;quot;, Arial, &amp;quot;Apple Color Emoji&amp;quot;, &amp;quot;Segoe UI Emoji&amp;quot;, &amp;quot;Segoe UI Symbol&amp;quot;, &amp;quot;Noto Color Emoji&amp;quot;; font-size: 32px; text-align: start;&quot;&gt;Opportunities&lt;/span&gt;&lt;/div&gt;" style="text;strokeColor=none;align=center;fillColor=none;html=1;verticalAlign=bottom;whiteSpace=wrap;rounded=0;fontStyle=1;fontColor=#333333;labelBackgroundColor=none;" parent="1" vertex="1">
                    <mxGeometry x="55" y="424" width="520" height="120" as="geometry"/>
                </mxCell>
                <mxCell id="11" value="&lt;blockquote style=&quot;margin: 0px 0px 0px 40px; border: none; padding: 0px;&quot;&gt;&lt;div style=&quot;line-height: 24px; font-size: 20px;&quot;&gt;&lt;ul style=&quot;&quot;&gt;&lt;li style=&quot;&quot;&gt;&lt;font style=&quot;font-size: 20px;&quot; face=&quot;DejaVu Sans Mono, Fira Mono, Noto Sans SC, Consolas, Courier New, monospace&quot;&gt;&lt;span style=&quot;&quot;&gt;A&lt;/span&gt;&lt;/font&gt;&lt;span style=&quot;font-family: Söhne, ui-sans-serif, system-ui, -apple-system, &amp;quot;Segoe UI&amp;quot;, Roboto, Ubuntu, Cantarell, &amp;quot;Noto Sans&amp;quot;, sans-serif, &amp;quot;Helvetica Neue&amp;quot;, Arial, &amp;quot;Apple Color Emoji&amp;quot;, &amp;quot;Segoe UI Emoji&amp;quot;, &amp;quot;Segoe UI Symbol&amp;quot;, &amp;quot;Noto Color Emoji&amp;quot;;&quot;&gt;dditional cash inflow&lt;/span&gt;&lt;/li&gt;&lt;li style=&quot;&quot;&gt;&lt;span style=&quot;font-family: Söhne, ui-sans-serif, system-ui, -apple-system, &amp;quot;Segoe UI&amp;quot;, Roboto, Ubuntu, Cantarell, &amp;quot;Noto Sans&amp;quot;, sans-serif, &amp;quot;Helvetica Neue&amp;quot;, Arial, &amp;quot;Apple Color Emoji&amp;quot;, &amp;quot;Segoe UI Emoji&amp;quot;, &amp;quot;Segoe UI Symbol&amp;quot;, &amp;quot;Noto Color Emoji&amp;quot;;&quot;&gt;Improving workflow&lt;/span&gt;&lt;font style=&quot;font-size: 20px;&quot; face=&quot;DejaVu Sans Mono, Fira Mono, Noto Sans SC, Consolas, Courier New, monospace&quot;&gt;s&lt;/font&gt;&lt;/li&gt;&lt;li style=&quot;&quot;&gt;&lt;font style=&quot;font-size: 20px;&quot; face=&quot;DejaVu Sans Mono, Fira Mono, Noto Sans SC, Consolas, Courier New, monospace&quot;&gt;Increasing company influence&lt;/font&gt;&lt;/li&gt;&lt;/ul&gt;&lt;/div&gt;&lt;/blockquote&gt;" style="text;align=left;html=1;verticalAlign=top;whiteSpace=wrap;rounded=0;fontStyle=0;labelBackgroundColor=none;labelBorderColor=none;glass=0;shadow=0;fontSize=18;fontColor=#000000;spacingLeft=-16;" parent="1" vertex="1">
                    <mxGeometry x="55" y="544" width="520" height="240" as="geometry"/>
                </mxCell>
                <mxCell id="12" value="&lt;font style=&quot;font-size: 32px;&quot;&gt;Threats&lt;/font&gt;" style="text;strokeColor=none;align=center;fillColor=none;html=1;verticalAlign=bottom;whiteSpace=wrap;rounded=0;fontStyle=1;fontColor=#333333;" parent="1" vertex="1">
                    <mxGeometry x="595" y="424" width="520" height="120" as="geometry"/>
                </mxCell>
                <mxCell id="13" value="&lt;blockquote style=&quot;margin: 0px 0px 0px 40px; border: none; padding: 0px; font-size: 20px;&quot;&gt;&lt;div style=&quot;line-height: 24px;&quot;&gt;&lt;ul&gt;&lt;li&gt;&lt;span style=&quot;font-family: Söhne, ui-sans-serif, system-ui, -apple-system, &amp;quot;Segoe UI&amp;quot;, Roboto, Ubuntu, Cantarell, &amp;quot;Noto Sans&amp;quot;, sans-serif, &amp;quot;Helvetica Neue&amp;quot;, Arial, &amp;quot;Apple Color Emoji&amp;quot;, &amp;quot;Segoe UI Emoji&amp;quot;, &amp;quot;Segoe UI Symbol&amp;quot;, &amp;quot;Noto Color Emoji&amp;quot;;&quot;&gt;Server being shut down&lt;/span&gt;&lt;br&gt;&lt;/li&gt;&lt;li&gt;&lt;span style=&quot;font-family: Söhne, ui-sans-serif, system-ui, -apple-system, &amp;quot;Segoe UI&amp;quot;, Roboto, Ubuntu, Cantarell, &amp;quot;Noto Sans&amp;quot;, sans-serif, &amp;quot;Helvetica Neue&amp;quot;, Arial, &amp;quot;Apple Color Emoji&amp;quot;, &amp;quot;Segoe UI Emoji&amp;quot;, &amp;quot;Segoe UI Symbol&amp;quot;, &amp;quot;Noto Color Emoji&amp;quot;;&quot;&gt;Server being hacked&lt;/span&gt;&lt;/li&gt;&lt;/ul&gt;&lt;/div&gt;&lt;div style=&quot;line-height: 24px;&quot;&gt;&lt;span style=&quot;font-family: Söhne, ui-sans-serif, system-ui, -apple-system, &amp;quot;Segoe UI&amp;quot;, Roboto, Ubuntu, Cantarell, &amp;quot;Noto Sans&amp;quot;, sans-serif, &amp;quot;Helvetica Neue&amp;quot;, Arial, &amp;quot;Apple Color Emoji&amp;quot;, &amp;quot;Segoe UI Emoji&amp;quot;, &amp;quot;Segoe UI Symbol&amp;quot;, &amp;quot;Noto Color Emoji&amp;quot;;&quot;&gt;Once the server is shut down or hacked, the company will s&lt;/span&gt;&lt;span style=&quot;font-family: Söhne, ui-sans-serif, system-ui, -apple-system, &amp;quot;Segoe UI&amp;quot;, Roboto, Ubuntu, Cantarell, &amp;quot;Noto Sans&amp;quot;, sans-serif, &amp;quot;Helvetica Neue&amp;quot;, Arial, &amp;quot;Apple Color Emoji&amp;quot;, &amp;quot;Segoe UI Emoji&amp;quot;, &amp;quot;Segoe UI Symbol&amp;quot;, &amp;quot;Noto Color Emoji&amp;quot;;&quot;&gt;uffer a catastrophic blow&lt;/span&gt;&lt;span style=&quot;font-family: Söhne, ui-sans-serif, system-ui, -apple-system, &amp;quot;Segoe UI&amp;quot;, Roboto, Ubuntu, Cantarell, &amp;quot;Noto Sans&amp;quot;, sans-serif, &amp;quot;Helvetica Neue&amp;quot;, Arial, &amp;quot;Apple Color Emoji&amp;quot;, &amp;quot;Segoe UI Emoji&amp;quot;, &amp;quot;Segoe UI Symbol&amp;quot;, &amp;quot;Noto Color Emoji&amp;quot;;&quot;&gt;, unless additional disaster recovery servers have been installed&lt;/span&gt;&lt;/div&gt;&lt;/blockquote&gt;" style="text;align=left;html=1;verticalAlign=top;whiteSpace=wrap;rounded=0;fontStyle=0;labelBackgroundColor=none;labelBorderColor=none;glass=0;shadow=0;fontSize=18;fontColor=#000000;spacingLeft=-16;" parent="1" vertex="1">
                    <mxGeometry x="595" y="544" width="520" height="240" as="geometry"/>
                </mxCell>
            </root>
        </mxGraphModel>
    </diagram>
</mxfile>
